<svg xmlns="http://www.w3.org/2000/svg" xmlns:xlink="http://www.w3.org/1999/xlink"><symbol id="arrow" viewBox="0 0 17 22"><g fill="none">
<path d="M6 1L16 11L6 21" stroke="currentColor"/>
</g></symbol><symbol id="odnoklassniki" viewBox="0 0 22 22"><g fill="none">
<path d="M11 3.32798C12.3229 3.32798 13.3988 4.38262 13.3988 5.67944C13.3988 6.97235 12.3229 8.02699 11 8.02699C9.67708 8.02699 8.60121 6.97235 8.60121 5.67944C8.60121 4.38262 9.67708 3.32798 11 3.32798ZM11 11.355C14.1957 11.355 16.7938 8.8082 16.7938 5.67944C16.7938 2.54676 14.1957 0 11 0C7.80427 0 5.21023 2.54676 5.21023 5.67944C5.21023 8.8082 7.80427 11.355 11 11.355ZM13.343 15.9876C14.5225 15.722 15.6581 15.2649 16.7061 14.6204C17.499 14.1322 17.7381 13.1049 17.24 12.3276C16.738 11.5464 15.694 11.312 14.897 11.8042C12.5261 13.265 9.47386 13.265 7.09898 11.8042C6.30603 11.312 5.25805 11.5464 4.75996 12.3276C4.26188 13.1049 4.50096 14.1322 5.29391 14.6204C6.34189 15.2649 7.47753 15.722 8.657 15.9876L5.41744 19.1593C4.75598 19.8077 4.75598 20.8624 5.41744 21.5108C5.75215 21.835 6.1825 21.999 6.61683 21.999C7.05116 21.999 7.4855 21.835 7.82021 21.5108L11 18.3937L14.1838 21.5108C14.8452 22.1631 15.9171 22.1631 16.5826 21.5108C17.244 20.8624 17.244 19.8077 16.5826 19.1593L13.343 15.9876Z" fill="currentColor"/>
</g></symbol><symbol id="play" viewBox="0 0 22 22"><g fill="none">
<path d="M17.5 11L4.5 18.5L4.5 3.5L17.5 11Z" fill="currentColor"/>
</g></symbol><symbol id="reddit" viewBox="0 0 22 22"><g fill="none">
<path d="M12.9453 0.5C12.304 0.5 11.7021 0.84161 11.3161 1.33425C10.9301 1.82688 10.7173 2.4274 10.5623 3.06027C10.3161 4.07791 10.2401 5.20702 10.2219 6.22466C8.41944 6.35051 6.78722 6.91147 5.43159 7.77808C4.88143 7.29264 4.21882 7.02295 3.58356 7.03014C2.86015 7.03733 2.17322 7.36455 1.66258 8.03699C0.686888 9.32072 0.799351 11.4207 1.93005 12.6685C1.86015 13.0533 1.80847 13.4488 1.80847 13.8479C1.80847 18.0767 5.92399 21.5 11 21.5C16.076 21.5 20.1915 18.0731 20.1915 13.8479C20.1915 13.4488 20.1399 13.0533 20.0699 12.6685C21.2006 11.4207 21.3131 9.32072 20.3374 8.03699C19.8268 7.36455 19.1399 7.03733 18.4164 7.03014C17.7812 7.02295 17.1186 7.29264 16.5684 7.77808C15.2189 6.91507 13.5958 6.35411 11.8024 6.22466C11.8268 5.28613 11.8906 4.31164 12.0699 3.57808C12.1824 3.11781 12.3161 2.78339 12.459 2.6C12.6018 2.41661 12.7052 2.3411 12.9453 2.3411C13.4651 2.3411 13.5319 2.51729 13.845 2.94521C14.0031 3.16096 14.1854 3.43065 14.4772 3.69315C14.769 3.95565 15.2006 4.18219 15.6687 4.18219V2.3411C15.538 2.3411 15.5137 2.3375 15.4256 2.25479C15.3374 2.17209 15.2158 1.98151 15.0365 1.73699C14.6778 1.24435 13.9818 0.5 12.9453 0.5ZM18.0031 0.672603C16.7933 0.672603 15.8146 1.83048 15.8146 3.26164C15.8146 4.69281 16.7933 5.85069 18.0031 5.85069C19.2128 5.85069 20.1915 4.69281 20.1915 3.26164C20.1915 1.83048 19.2128 0.672603 18.0031 0.672603ZM18.0031 1.59315C18.7812 1.59315 19.4134 2.3411 19.4134 3.26164C19.4134 4.18219 18.7812 4.93014 18.0031 4.93014C17.225 4.93014 16.5927 4.18219 16.5927 3.26164C16.5927 2.3411 17.225 1.59315 18.0031 1.59315ZM11 7.66301C15.307 7.66301 18.9514 10.5002 18.9514 13.8479C18.9514 17.1993 15.307 20.0329 11 20.0329C6.69299 20.0329 3.0486 17.1993 3.0486 13.8479C3.0486 10.5002 6.69299 7.66301 11 7.66301ZM3.60787 8.49726C3.82368 8.50086 4.0486 8.55839 4.26441 8.66986C3.48325 9.37106 2.86319 10.1765 2.44069 11.0863C2.1489 10.3743 2.22793 9.48613 2.58659 9.01507C2.84799 8.66986 3.20969 8.49366 3.60787 8.49726ZM18.3921 8.49726C18.7903 8.49366 19.152 8.66986 19.4134 9.01507C19.7721 9.48613 19.8511 10.3743 19.5593 11.0863C19.1368 10.1765 18.5167 9.37106 17.7356 8.66986C17.9514 8.55839 18.1763 8.50086 18.3921 8.49726ZM7.88753 10.7986C7.10941 10.7986 6.47719 11.5466 6.47719 12.4671C6.47719 13.3877 7.10941 14.1356 7.88753 14.1356C8.66564 14.1356 9.29786 13.3877 9.29786 12.4671C9.29786 11.5466 8.66564 10.7986 7.88753 10.7986ZM14.1125 10.7986C13.3344 10.7986 12.7021 11.5466 12.7021 12.4671C12.7021 13.3877 13.3344 14.1356 14.1125 14.1356C14.8906 14.1356 15.5228 13.3877 15.5228 12.4671C15.5228 11.5466 14.8906 10.7986 14.1125 10.7986ZM7.13372 16.4658C7.62917 17.6776 9.16109 18.8534 11 18.8534C12.8389 18.8534 14.3952 17.6776 14.8906 16.4658C13.9909 17.1526 12.5714 17.6164 11 17.6164C9.42857 17.6164 8.03342 17.1526 7.13372 16.4658Z" fill="currentColor"/>
</g></symbol><symbol id="rouble" viewBox="0 0 30 42"><g fill="none">
<path fill-rule="evenodd" clip-rule="evenodd" d="M18.5 6H10V17H18.5C21.5376 17 24 14.5376 24 11.5C24 8.46243 21.5376 6 18.5 6ZM4 0V23H18.5C24.8513 23 30 17.8513 30 11.5C30 5.14873 24.8513 0 18.5 0H4Z" fill="#102654"/>
<path fill-rule="evenodd" clip-rule="evenodd" d="M0 17H6V23H0V17Z" fill="#102654"/>
<path fill-rule="evenodd" clip-rule="evenodd" d="M3.65854 28.3214V18H9.65854V28.3214H21V34.3214H9.65854V42H3.65854V34.3214H0V28.3214H3.65854Z" fill="#102654"/>
</g></symbol><symbol id="vk" viewBox="0 0 22 22"><g fill="none">
<path d="M21.8039 15.7032C21.7448 15.6086 21.379 14.8488 19.6189 13.2871C17.7762 11.6518 18.0238 11.9173 20.2432 9.0897C21.5949 7.36763 22.1353 6.31598 21.9662 5.86641C21.8053 5.43786 20.8111 5.55091 20.8111 5.55091L17.5053 5.56932C17.5053 5.56932 17.2606 5.53777 17.0777 5.64162C16.9003 5.74415 16.7862 5.98077 16.7862 5.98077C16.7862 5.98077 16.2623 7.31373 15.5637 8.44688C14.091 10.8381 13.501 10.9643 13.2604 10.8157C12.7007 10.47 12.841 9.42491 12.841 8.6835C12.841 6.36594 13.2082 5.39974 12.1246 5.14997C11.7643 5.06715 11.5003 5.01194 10.5803 5.00274C9.4005 4.99091 8.4008 5.00668 7.83563 5.27091C7.45885 5.44706 7.16871 5.84011 7.3461 5.86246C7.56474 5.89007 8.05977 5.98997 8.32242 6.33176C8.66207 6.77214 8.64969 7.76331 8.64969 7.76331C8.64969 7.76331 8.84496 10.491 8.19453 10.8302C7.74763 11.0629 7.13571 10.5883 5.82248 8.41796C5.15006 7.30716 4.64127 6.07805 4.64127 6.07805C4.64127 6.07805 4.54364 5.84932 4.369 5.72706C4.15724 5.57852 3.86022 5.53119 3.86022 5.53119L0.716735 5.5496C0.716735 5.5496 0.245075 5.56274 0.0718122 5.75861C-0.0821991 5.93345 0.0594363 6.29364 0.0594363 6.29364C0.0594363 6.29364 2.52087 11.7977 5.30682 14.5727C7.86313 17.1164 10.7646 16.9494 10.7646 16.9494H12.0792C12.0792 16.9494 12.4766 16.9074 12.6787 16.6984C12.8658 16.5064 12.8589 16.1463 12.8589 16.1463C12.8589 16.1463 12.8327 14.4597 13.6523 14.2112C14.4595 13.9667 15.4963 15.8413 16.595 16.563C17.4256 17.1085 18.0568 16.9889 18.0568 16.9889L20.9953 16.9494C20.9953 16.9494 22.5327 16.8587 21.8039 15.7032Z" fill="currentColor"/>
</g></symbol></svg>